<mxfile host="app.diagrams.net" modified="2023-04-30T16:50:36.999Z" agent="Mozilla/5.0 (Windows NT 10.0; Win64; x64) AppleWebKit/537.36 (KHTML, like Gecko) Chrome/112.0.0.0 Safari/537.36" etag="GYTB1OPAZdVv-VplJOh_" version="21.2.3" type="github">
  <diagram name="Page-1" id="h5nciQh3TE7ta7tmnZzR">
    <mxGraphModel dx="2754" dy="570" grid="1" gridSize="10" guides="1" tooltips="1" connect="1" arrows="1" fold="1" page="1" pageScale="1" pageWidth="1654" pageHeight="1169" math="0" shadow="0">
      <root>
        <mxCell id="0" />
        <mxCell id="1" parent="0" />
        <mxCell id="ngMEPLknOlef9Go4WVba-1" value="Fact.FIN_FactInvoice" style="swimlane;fontStyle=0;align=center;verticalAlign=top;childLayout=stackLayout;horizontal=1;startSize=26;horizontalStack=0;resizeParent=1;resizeLast=0;collapsible=1;marginBottom=0;rounded=1;shadow=0;strokeWidth=1;fillColor=#cdeb8b;strokeColor=#36393d;" parent="1" vertex="1">
          <mxGeometry x="350" y="350" width="200" height="708" as="geometry">
            <mxRectangle x="550" y="140" width="160" height="26" as="alternateBounds" />
          </mxGeometry>
        </mxCell>
        <mxCell id="ngMEPLknOlef9Go4WVba-2" value="PK ** FIN_Id" style="text;align=left;verticalAlign=top;spacingLeft=4;spacingRight=4;overflow=hidden;rotatable=0;points=[[0,0.5],[1,0.5]];portConstraint=eastwest;" parent="ngMEPLknOlef9Go4WVba-1" vertex="1">
          <mxGeometry y="26" width="200" height="26" as="geometry" />
        </mxCell>
        <mxCell id="ngMEPLknOlef9Go4WVba-3" value="         FIN_InvoiceId" style="text;align=left;verticalAlign=top;spacingLeft=4;spacingRight=4;overflow=hidden;rotatable=0;points=[[0,0.5],[1,0.5]];portConstraint=eastwest;rounded=0;shadow=0;html=0;" parent="ngMEPLknOlef9Go4WVba-1" vertex="1">
          <mxGeometry y="52" width="200" height="26" as="geometry" />
        </mxCell>
        <mxCell id="ngMEPLknOlef9Go4WVba-4" value="         FIN_NetPriceTTC&#xa; " style="text;align=left;verticalAlign=top;spacingLeft=4;spacingRight=4;overflow=hidden;rotatable=0;points=[[0,0.5],[1,0.5]];portConstraint=eastwest;rounded=0;shadow=0;html=0;" parent="ngMEPLknOlef9Go4WVba-1" vertex="1">
          <mxGeometry y="78" width="200" height="26" as="geometry" />
        </mxCell>
        <mxCell id="ngMEPLknOlef9Go4WVba-5" value="         FIN_NetPriceHT&#xa; " style="text;align=left;verticalAlign=top;spacingLeft=4;spacingRight=4;overflow=hidden;rotatable=0;points=[[0,0.5],[1,0.5]];portConstraint=eastwest;rounded=0;shadow=0;html=0;" parent="ngMEPLknOlef9Go4WVba-1" vertex="1">
          <mxGeometry y="104" width="200" height="26" as="geometry" />
        </mxCell>
        <mxCell id="ngMEPLknOlef9Go4WVba-6" value="         FIN_CostPrice  &#xa; " style="text;align=left;verticalAlign=top;spacingLeft=4;spacingRight=4;overflow=hidden;rotatable=0;points=[[0,0.5],[1,0.5]];portConstraint=eastwest;rounded=0;shadow=0;html=0;" parent="ngMEPLknOlef9Go4WVba-1" vertex="1">
          <mxGeometry y="130" width="200" height="26" as="geometry" />
        </mxCell>
        <mxCell id="ngMEPLknOlef9Go4WVba-7" value="         FIN_GrossPrice  &#xa; " style="text;align=left;verticalAlign=top;spacingLeft=4;spacingRight=4;overflow=hidden;rotatable=0;points=[[0,0.5],[1,0.5]];portConstraint=eastwest;rounded=0;shadow=0;html=0;" parent="ngMEPLknOlef9Go4WVba-1" vertex="1">
          <mxGeometry y="156" width="200" height="26" as="geometry" />
        </mxCell>
        <mxCell id="ngMEPLknOlef9Go4WVba-8" value="         FIN_Margin " style="text;align=left;verticalAlign=top;spacingLeft=4;spacingRight=4;overflow=hidden;rotatable=0;points=[[0,0.5],[1,0.5]];portConstraint=eastwest;rounded=0;shadow=0;html=0;" parent="ngMEPLknOlef9Go4WVba-1" vertex="1">
          <mxGeometry y="182" width="200" height="26" as="geometry" />
        </mxCell>
        <mxCell id="ngMEPLknOlef9Go4WVba-9" value="         FIN_QtyInvoice " style="text;align=left;verticalAlign=top;spacingLeft=4;spacingRight=4;overflow=hidden;rotatable=0;points=[[0,0.5],[1,0.5]];portConstraint=eastwest;rounded=0;shadow=0;html=0;" parent="ngMEPLknOlef9Go4WVba-1" vertex="1">
          <mxGeometry y="208" width="200" height="26" as="geometry" />
        </mxCell>
        <mxCell id="ngMEPLknOlef9Go4WVba-10" value="         FIN_Line " style="text;align=left;verticalAlign=top;spacingLeft=4;spacingRight=4;overflow=hidden;rotatable=0;points=[[0,0.5],[1,0.5]];portConstraint=eastwest;rounded=0;shadow=0;html=0;" parent="ngMEPLknOlef9Go4WVba-1" vertex="1">
          <mxGeometry y="234" width="200" height="26" as="geometry" />
        </mxCell>
        <mxCell id="ngMEPLknOlef9Go4WVba-11" value="         FIN_SequenceNumber " style="text;align=left;verticalAlign=top;spacingLeft=4;spacingRight=4;overflow=hidden;rotatable=0;points=[[0,0.5],[1,0.5]];portConstraint=eastwest;rounded=0;shadow=0;html=0;" parent="ngMEPLknOlef9Go4WVba-1" vertex="1">
          <mxGeometry y="260" width="200" height="26" as="geometry" />
        </mxCell>
        <mxCell id="ngMEPLknOlef9Go4WVba-12" value="         FIN_InvoiceDate" style="text;align=left;verticalAlign=top;spacingLeft=4;spacingRight=4;overflow=hidden;rotatable=0;points=[[0,0.5],[1,0.5]];portConstraint=eastwest;rounded=0;shadow=0;html=0;" parent="ngMEPLknOlef9Go4WVba-1" vertex="1">
          <mxGeometry y="286" width="200" height="26" as="geometry" />
        </mxCell>
        <mxCell id="ngMEPLknOlef9Go4WVba-13" value="         FIN_ItemKey " style="text;align=left;verticalAlign=top;spacingLeft=4;spacingRight=4;overflow=hidden;rotatable=0;points=[[0,0.5],[1,0.5]];portConstraint=eastwest;rounded=0;shadow=0;html=0;" parent="ngMEPLknOlef9Go4WVba-1" vertex="1">
          <mxGeometry y="312" width="200" height="26" as="geometry" />
        </mxCell>
        <mxCell id="ngMEPLknOlef9Go4WVba-14" value="         FIN_GroupCustomerKey  " style="text;align=left;verticalAlign=top;spacingLeft=4;spacingRight=4;overflow=hidden;rotatable=0;points=[[0,0.5],[1,0.5]];portConstraint=eastwest;rounded=0;shadow=0;html=0;" parent="ngMEPLknOlef9Go4WVba-1" vertex="1">
          <mxGeometry y="338" width="200" height="26" as="geometry" />
        </mxCell>
        <mxCell id="ngMEPLknOlef9Go4WVba-15" value="         FIN_InvoiceCustomerKey  " style="text;align=left;verticalAlign=top;spacingLeft=4;spacingRight=4;overflow=hidden;rotatable=0;points=[[0,0.5],[1,0.5]];portConstraint=eastwest;rounded=0;shadow=0;html=0;" parent="ngMEPLknOlef9Go4WVba-1" vertex="1">
          <mxGeometry y="364" width="200" height="26" as="geometry" />
        </mxCell>
        <mxCell id="ngMEPLknOlef9Go4WVba-16" value="         FIN_ThirdPartyKey  " style="text;align=left;verticalAlign=top;spacingLeft=4;spacingRight=4;overflow=hidden;rotatable=0;points=[[0,0.5],[1,0.5]];portConstraint=eastwest;rounded=0;shadow=0;html=0;" parent="ngMEPLknOlef9Go4WVba-1" vertex="1">
          <mxGeometry y="390" width="200" height="26" as="geometry" />
        </mxCell>
        <mxCell id="ngMEPLknOlef9Go4WVba-17" value="         FIN_ShippingSiteKey&#xa;  " style="text;align=left;verticalAlign=top;spacingLeft=4;spacingRight=4;overflow=hidden;rotatable=0;points=[[0,0.5],[1,0.5]];portConstraint=eastwest;rounded=1;shadow=0;html=0;" parent="ngMEPLknOlef9Go4WVba-1" vertex="1">
          <mxGeometry y="416" width="200" height="26" as="geometry" />
        </mxCell>
        <mxCell id="ngMEPLknOlef9Go4WVba-18" value="         FIN_SalesSiteKey&#xa;  " style="text;align=left;verticalAlign=top;spacingLeft=4;spacingRight=4;overflow=hidden;rotatable=0;points=[[0,0.5],[1,0.5]];portConstraint=eastwest;rounded=1;shadow=0;html=0;" parent="ngMEPLknOlef9Go4WVba-1" vertex="1">
          <mxGeometry y="442" width="200" height="26" as="geometry" />
        </mxCell>
        <mxCell id="ngMEPLknOlef9Go4WVba-19" value="         FIN_OriginSiteKey&#xa;  " style="text;align=left;verticalAlign=top;spacingLeft=4;spacingRight=4;overflow=hidden;rotatable=0;points=[[0,0.5],[1,0.5]];portConstraint=eastwest;rounded=1;shadow=0;html=0;" parent="ngMEPLknOlef9Go4WVba-1" vertex="1">
          <mxGeometry y="468" width="200" height="26" as="geometry" />
        </mxCell>
        <mxCell id="ngMEPLknOlef9Go4WVba-20" value="         FIN_CompanyKey&#xa;  " style="text;align=left;verticalAlign=top;spacingLeft=4;spacingRight=4;overflow=hidden;rotatable=0;points=[[0,0.5],[1,0.5]];portConstraint=eastwest;rounded=1;shadow=0;html=0;" parent="ngMEPLknOlef9Go4WVba-1" vertex="1">
          <mxGeometry y="494" width="200" height="26" as="geometry" />
        </mxCell>
        <mxCell id="ngMEPLknOlef9Go4WVba-21" value="         FIN_CountryKey&#xa;  " style="text;align=left;verticalAlign=top;spacingLeft=4;spacingRight=4;overflow=hidden;rotatable=0;points=[[0,0.5],[1,0.5]];portConstraint=eastwest;rounded=1;shadow=0;html=0;" parent="ngMEPLknOlef9Go4WVba-1" vertex="1">
          <mxGeometry y="520" width="200" height="26" as="geometry" />
        </mxCell>
        <mxCell id="ngMEPLknOlef9Go4WVba-22" value="         FIN_InvoiceTypeKey  " style="text;align=left;verticalAlign=top;spacingLeft=4;spacingRight=4;overflow=hidden;rotatable=0;points=[[0,0.5],[1,0.5]];portConstraint=eastwest;rounded=1;shadow=0;html=0;" parent="ngMEPLknOlef9Go4WVba-1" vertex="1">
          <mxGeometry y="546" width="200" height="26" as="geometry" />
        </mxCell>
        <mxCell id="ngMEPLknOlef9Go4WVba-23" value="         FIN_InvoiceStatusKey  " style="text;align=left;verticalAlign=top;spacingLeft=4;spacingRight=4;overflow=hidden;rotatable=0;points=[[0,0.5],[1,0.5]];portConstraint=eastwest;rounded=1;shadow=0;html=0;" parent="ngMEPLknOlef9Go4WVba-1" vertex="1">
          <mxGeometry y="572" width="200" height="26" as="geometry" />
        </mxCell>
        <mxCell id="ngMEPLknOlef9Go4WVba-24" value="        FIN_SalesPersonKey" style="text;align=left;verticalAlign=top;spacingLeft=4;spacingRight=4;overflow=hidden;rotatable=0;points=[[0,0.5],[1,0.5]];portConstraint=eastwest;rounded=1;shadow=0;html=0;" parent="ngMEPLknOlef9Go4WVba-1" vertex="1">
          <mxGeometry y="598" width="200" height="26" as="geometry" />
        </mxCell>
        <mxCell id="ngMEPLknOlef9Go4WVba-25" value="        FIN_DeliveryMethodKey" style="text;align=left;verticalAlign=top;spacingLeft=4;spacingRight=4;overflow=hidden;rotatable=0;points=[[0,0.5],[1,0.5]];portConstraint=eastwest;rounded=1;shadow=0;html=0;" parent="ngMEPLknOlef9Go4WVba-1" vertex="1">
          <mxGeometry y="624" width="200" height="26" as="geometry" />
        </mxCell>
        <mxCell id="ngMEPLknOlef9Go4WVba-26" value="" style="line;html=1;strokeWidth=1;align=left;verticalAlign=middle;spacingTop=-1;spacingLeft=3;spacingRight=3;rotatable=0;labelPosition=right;points=[];portConstraint=eastwest;" parent="ngMEPLknOlef9Go4WVba-1" vertex="1">
          <mxGeometry y="650" width="200" height="58" as="geometry" />
        </mxCell>
        <mxCell id="_X3g_jrZR5o-a9PcmYyr-1" value="Dim.DDT_DimTime" style="swimlane;fontStyle=0;align=center;verticalAlign=top;childLayout=stackLayout;horizontal=1;startSize=26;horizontalStack=0;resizeParent=1;resizeLast=0;collapsible=1;marginBottom=0;rounded=1;shadow=0;strokeWidth=1;fillColor=#FAE5C7;strokeColor=#0F8B8D;labelBackgroundColor=none;fontColor=#143642;" vertex="1" parent="1">
          <mxGeometry x="110" y="190" width="172" height="220" as="geometry">
            <mxRectangle x="550" y="140" width="160" height="26" as="alternateBounds" />
          </mxGeometry>
        </mxCell>
        <mxCell id="_X3g_jrZR5o-a9PcmYyr-2" value="PK ** DDT_DateKey" style="text;align=left;verticalAlign=top;spacingLeft=4;spacingRight=4;overflow=hidden;rotatable=0;points=[[0,0.5],[1,0.5]];portConstraint=eastwest;labelBackgroundColor=none;fontColor=#143642;rounded=1;" vertex="1" parent="_X3g_jrZR5o-a9PcmYyr-1">
          <mxGeometry y="26" width="172" height="26" as="geometry" />
        </mxCell>
        <mxCell id="_X3g_jrZR5o-a9PcmYyr-3" value="        DDT_Date&#xa;" style="text;align=left;verticalAlign=top;spacingLeft=4;spacingRight=4;overflow=hidden;rotatable=0;points=[[0,0.5],[1,0.5]];portConstraint=eastwest;labelBackgroundColor=none;fontColor=#143642;rounded=1;" vertex="1" parent="_X3g_jrZR5o-a9PcmYyr-1">
          <mxGeometry y="52" width="172" height="26" as="geometry" />
        </mxCell>
        <mxCell id="_X3g_jrZR5o-a9PcmYyr-4" value="        DDT_Year&#xa;" style="text;align=left;verticalAlign=top;spacingLeft=4;spacingRight=4;overflow=hidden;rotatable=0;points=[[0,0.5],[1,0.5]];portConstraint=eastwest;labelBackgroundColor=none;fontColor=#143642;rounded=1;" vertex="1" parent="_X3g_jrZR5o-a9PcmYyr-1">
          <mxGeometry y="78" width="172" height="26" as="geometry" />
        </mxCell>
        <mxCell id="_X3g_jrZR5o-a9PcmYyr-5" value="        DDT_Semester&#xa;" style="text;align=left;verticalAlign=top;spacingLeft=4;spacingRight=4;overflow=hidden;rotatable=0;points=[[0,0.5],[1,0.5]];portConstraint=eastwest;labelBackgroundColor=none;fontColor=#143642;rounded=1;" vertex="1" parent="_X3g_jrZR5o-a9PcmYyr-1">
          <mxGeometry y="104" width="172" height="28" as="geometry" />
        </mxCell>
        <mxCell id="_X3g_jrZR5o-a9PcmYyr-6" value="        DDT_Quarter" style="text;align=left;verticalAlign=top;spacingLeft=4;spacingRight=4;overflow=hidden;rotatable=0;points=[[0,0.5],[1,0.5]];portConstraint=eastwest;labelBackgroundColor=none;fontColor=#143642;rounded=1;" vertex="1" parent="_X3g_jrZR5o-a9PcmYyr-1">
          <mxGeometry y="132" width="172" height="26" as="geometry" />
        </mxCell>
        <mxCell id="_X3g_jrZR5o-a9PcmYyr-7" value="        DDT_Month&#xa;" style="text;align=left;verticalAlign=top;spacingLeft=4;spacingRight=4;overflow=hidden;rotatable=0;points=[[0,0.5],[1,0.5]];portConstraint=eastwest;labelBackgroundColor=none;fontColor=#143642;rounded=1;" vertex="1" parent="_X3g_jrZR5o-a9PcmYyr-1">
          <mxGeometry y="158" width="172" height="26" as="geometry" />
        </mxCell>
        <mxCell id="_X3g_jrZR5o-a9PcmYyr-8" value="" style="line;html=1;strokeWidth=1;align=left;verticalAlign=middle;spacingTop=-1;spacingLeft=3;spacingRight=3;rotatable=0;labelPosition=right;points=[];portConstraint=eastwest;labelBackgroundColor=none;fillColor=#FAE5C7;strokeColor=#0F8B8D;fontColor=#143642;rounded=1;" vertex="1" parent="_X3g_jrZR5o-a9PcmYyr-1">
          <mxGeometry y="184" width="172" height="8" as="geometry" />
        </mxCell>
        <mxCell id="_X3g_jrZR5o-a9PcmYyr-9" style="edgeStyle=orthogonalEdgeStyle;rounded=0;orthogonalLoop=1;jettySize=auto;html=1;" edge="1" parent="1" source="ngMEPLknOlef9Go4WVba-12" target="_X3g_jrZR5o-a9PcmYyr-2">
          <mxGeometry relative="1" as="geometry" />
        </mxCell>
        <mxCell id="_X3g_jrZR5o-a9PcmYyr-10" value="Dim.DSI_DimItems" style="swimlane;fontStyle=0;align=center;verticalAlign=top;childLayout=stackLayout;horizontal=1;startSize=26;horizontalStack=0;resizeParent=1;resizeLast=0;collapsible=1;marginBottom=0;rounded=1;shadow=0;strokeWidth=1;fillColor=#FAE5C7;strokeColor=#0F8B8D;labelBackgroundColor=none;fontColor=#143642;" vertex="1" parent="1">
          <mxGeometry x="-50" y="460" width="261" height="340" as="geometry">
            <mxRectangle x="550" y="140" width="160" height="26" as="alternateBounds" />
          </mxGeometry>
        </mxCell>
        <mxCell id="_X3g_jrZR5o-a9PcmYyr-11" value="PK ** DSI_ItemKey" style="text;align=left;verticalAlign=top;spacingLeft=4;spacingRight=4;overflow=hidden;rotatable=0;points=[[0,0.5],[1,0.5]];portConstraint=eastwest;labelBackgroundColor=none;fontColor=#143642;rounded=1;" vertex="1" parent="_X3g_jrZR5o-a9PcmYyr-10">
          <mxGeometry y="26" width="261" height="26" as="geometry" />
        </mxCell>
        <mxCell id="_X3g_jrZR5o-a9PcmYyr-12" value="         DSI_ItemId&#xa;" style="text;align=left;verticalAlign=top;spacingLeft=4;spacingRight=4;overflow=hidden;rotatable=0;points=[[0,0.5],[1,0.5]];portConstraint=eastwest;labelBackgroundColor=none;fontColor=#143642;rounded=1;" vertex="1" parent="_X3g_jrZR5o-a9PcmYyr-10">
          <mxGeometry y="52" width="261" height="26" as="geometry" />
        </mxCell>
        <mxCell id="_X3g_jrZR5o-a9PcmYyr-13" value="         DSI_ItemName&#xa;" style="text;align=left;verticalAlign=top;spacingLeft=4;spacingRight=4;overflow=hidden;rotatable=0;points=[[0,0.5],[1,0.5]];portConstraint=eastwest;labelBackgroundColor=none;fontColor=#143642;rounded=1;" vertex="1" parent="_X3g_jrZR5o-a9PcmYyr-10">
          <mxGeometry y="78" width="261" height="26" as="geometry" />
        </mxCell>
        <mxCell id="_X3g_jrZR5o-a9PcmYyr-14" value="         DSI_Warranty&#xa;" style="text;align=left;verticalAlign=top;spacingLeft=4;spacingRight=4;overflow=hidden;rotatable=0;points=[[0,0.5],[1,0.5]];portConstraint=eastwest;labelBackgroundColor=none;fontColor=#143642;rounded=1;" vertex="1" parent="_X3g_jrZR5o-a9PcmYyr-10">
          <mxGeometry y="104" width="261" height="26" as="geometry" />
        </mxCell>
        <mxCell id="_X3g_jrZR5o-a9PcmYyr-15" value="         DSI_StockItemDelivrable" style="text;align=left;verticalAlign=top;spacingLeft=4;spacingRight=4;overflow=hidden;rotatable=0;points=[[0,0.5],[1,0.5]];portConstraint=eastwest;labelBackgroundColor=none;fontColor=#143642;rounded=1;" vertex="1" parent="_X3g_jrZR5o-a9PcmYyr-10">
          <mxGeometry y="130" width="261" height="26" as="geometry" />
        </mxCell>
        <mxCell id="_X3g_jrZR5o-a9PcmYyr-16" value="         DSI_StockItemGeneric &#xa;" style="text;align=left;verticalAlign=top;spacingLeft=4;spacingRight=4;overflow=hidden;rotatable=0;points=[[0,0.5],[1,0.5]];portConstraint=eastwest;labelBackgroundColor=none;fontColor=#143642;rounded=1;" vertex="1" parent="_X3g_jrZR5o-a9PcmYyr-10">
          <mxGeometry y="156" width="261" height="26" as="geometry" />
        </mxCell>
        <mxCell id="_X3g_jrZR5o-a9PcmYyr-17" value="         DSI_StockItemManufactured" style="text;align=left;verticalAlign=top;spacingLeft=4;spacingRight=4;overflow=hidden;rotatable=0;points=[[0,0.5],[1,0.5]];portConstraint=eastwest;labelBackgroundColor=none;fontColor=#143642;rounded=1;" vertex="1" parent="_X3g_jrZR5o-a9PcmYyr-10">
          <mxGeometry y="182" width="261" height="26" as="geometry" />
        </mxCell>
        <mxCell id="_X3g_jrZR5o-a9PcmYyr-18" value="         DSI_StockItemPurchased" style="text;align=left;verticalAlign=top;spacingLeft=4;spacingRight=4;overflow=hidden;rotatable=0;points=[[0,0.5],[1,0.5]];portConstraint=eastwest;labelBackgroundColor=none;fontColor=#143642;rounded=1;" vertex="1" parent="_X3g_jrZR5o-a9PcmYyr-10">
          <mxGeometry y="208" width="261" height="26" as="geometry" />
        </mxCell>
        <mxCell id="_X3g_jrZR5o-a9PcmYyr-19" value="         DSI_StockItemSold&#xa;" style="text;align=left;verticalAlign=top;spacingLeft=4;spacingRight=4;overflow=hidden;rotatable=0;points=[[0,0.5],[1,0.5]];portConstraint=eastwest;labelBackgroundColor=none;fontColor=#143642;rounded=1;" vertex="1" parent="_X3g_jrZR5o-a9PcmYyr-10">
          <mxGeometry y="234" width="261" height="26" as="geometry" />
        </mxCell>
        <mxCell id="_X3g_jrZR5o-a9PcmYyr-20" value="         DSI_ConterBrand&#xa;" style="text;align=left;verticalAlign=top;spacingLeft=4;spacingRight=4;overflow=hidden;rotatable=0;points=[[0,0.5],[1,0.5]];portConstraint=eastwest;labelBackgroundColor=none;fontColor=#143642;rounded=1;" vertex="1" parent="_X3g_jrZR5o-a9PcmYyr-10">
          <mxGeometry y="260" width="261" height="26" as="geometry" />
        </mxCell>
        <mxCell id="_X3g_jrZR5o-a9PcmYyr-21" value="         DSI_ItemType&#xa;" style="text;align=left;verticalAlign=top;spacingLeft=4;spacingRight=4;overflow=hidden;rotatable=0;points=[[0,0.5],[1,0.5]];portConstraint=eastwest;labelBackgroundColor=none;fontColor=#143642;rounded=1;" vertex="1" parent="_X3g_jrZR5o-a9PcmYyr-10">
          <mxGeometry y="286" width="261" height="26" as="geometry" />
        </mxCell>
        <mxCell id="_X3g_jrZR5o-a9PcmYyr-22" value="" style="line;html=1;strokeWidth=1;align=left;verticalAlign=middle;spacingTop=-1;spacingLeft=3;spacingRight=3;rotatable=0;labelPosition=right;points=[];portConstraint=eastwest;labelBackgroundColor=none;fillColor=#FAE5C7;strokeColor=#0F8B8D;fontColor=#143642;rounded=1;" vertex="1" parent="_X3g_jrZR5o-a9PcmYyr-10">
          <mxGeometry y="312" width="261" height="28" as="geometry" />
        </mxCell>
        <mxCell id="_X3g_jrZR5o-a9PcmYyr-23" style="edgeStyle=orthogonalEdgeStyle;rounded=0;orthogonalLoop=1;jettySize=auto;html=1;" edge="1" parent="1" source="ngMEPLknOlef9Go4WVba-13" target="_X3g_jrZR5o-a9PcmYyr-11">
          <mxGeometry relative="1" as="geometry" />
        </mxCell>
        <mxCell id="_X3g_jrZR5o-a9PcmYyr-24" value="Dim.DST_DimStockItemsType" style="swimlane;fontStyle=0;align=center;verticalAlign=top;childLayout=stackLayout;horizontal=1;startSize=26;horizontalStack=0;resizeParent=1;resizeLast=0;collapsible=1;marginBottom=0;rounded=1;shadow=0;strokeWidth=1;fillColor=#FAE5C7;strokeColor=#0F8B8D;labelBackgroundColor=none;fontColor=#143642;" vertex="1" parent="1">
          <mxGeometry x="-330" y="550" width="220" height="130" as="geometry">
            <mxRectangle x="550" y="140" width="160" height="26" as="alternateBounds" />
          </mxGeometry>
        </mxCell>
        <mxCell id="_X3g_jrZR5o-a9PcmYyr-25" value="PK ** DST_StockItemTypeKey" style="text;align=left;verticalAlign=top;spacingLeft=4;spacingRight=4;overflow=hidden;rotatable=0;points=[[0,0.5],[1,0.5]];portConstraint=eastwest;labelBackgroundColor=none;fontColor=#143642;rounded=1;" vertex="1" parent="_X3g_jrZR5o-a9PcmYyr-24">
          <mxGeometry y="26" width="220" height="26" as="geometry" />
        </mxCell>
        <mxCell id="_X3g_jrZR5o-a9PcmYyr-26" value="         DST_StockItemTypeId&#xa;" style="text;align=left;verticalAlign=top;spacingLeft=4;spacingRight=4;overflow=hidden;rotatable=0;points=[[0,0.5],[1,0.5]];portConstraint=eastwest;labelBackgroundColor=none;fontColor=#143642;rounded=1;" vertex="1" parent="_X3g_jrZR5o-a9PcmYyr-24">
          <mxGeometry y="52" width="220" height="26" as="geometry" />
        </mxCell>
        <mxCell id="_X3g_jrZR5o-a9PcmYyr-27" value="         DST_StockItemTypeName" style="text;align=left;verticalAlign=top;spacingLeft=4;spacingRight=4;overflow=hidden;rotatable=0;points=[[0,0.5],[1,0.5]];portConstraint=eastwest;labelBackgroundColor=none;fontColor=#143642;rounded=1;" vertex="1" parent="_X3g_jrZR5o-a9PcmYyr-24">
          <mxGeometry y="78" width="220" height="26" as="geometry" />
        </mxCell>
        <mxCell id="_X3g_jrZR5o-a9PcmYyr-28" value="" style="line;html=1;strokeWidth=1;align=left;verticalAlign=middle;spacingTop=-1;spacingLeft=3;spacingRight=3;rotatable=0;labelPosition=right;points=[];portConstraint=eastwest;labelBackgroundColor=none;fillColor=#FAE5C7;strokeColor=#0F8B8D;fontColor=#143642;rounded=1;" vertex="1" parent="_X3g_jrZR5o-a9PcmYyr-24">
          <mxGeometry y="104" width="220" height="8" as="geometry" />
        </mxCell>
        <mxCell id="_X3g_jrZR5o-a9PcmYyr-30" style="edgeStyle=orthogonalEdgeStyle;rounded=0;orthogonalLoop=1;jettySize=auto;html=1;" edge="1" parent="1" source="_X3g_jrZR5o-a9PcmYyr-21" target="_X3g_jrZR5o-a9PcmYyr-25">
          <mxGeometry relative="1" as="geometry" />
        </mxCell>
        <mxCell id="_X3g_jrZR5o-a9PcmYyr-31" value="Dim.DCS_DimCustomers" style="swimlane;fontStyle=0;align=center;verticalAlign=top;childLayout=stackLayout;horizontal=1;startSize=26;horizontalStack=0;resizeParent=1;resizeLast=0;collapsible=1;marginBottom=0;rounded=1;shadow=0;strokeWidth=1;fillColor=#FAE5C7;strokeColor=#0F8B8D;labelBackgroundColor=none;fontColor=#143642;" vertex="1" parent="1">
          <mxGeometry x="680" y="270" width="210" height="270" as="geometry">
            <mxRectangle x="550" y="140" width="160" height="26" as="alternateBounds" />
          </mxGeometry>
        </mxCell>
        <mxCell id="_X3g_jrZR5o-a9PcmYyr-32" value="PK ** DCS_CustomersKey" style="text;align=left;verticalAlign=top;spacingLeft=4;spacingRight=4;overflow=hidden;rotatable=0;points=[[0,0.5],[1,0.5]];portConstraint=eastwest;labelBackgroundColor=none;fontColor=#143642;rounded=1;" vertex="1" parent="_X3g_jrZR5o-a9PcmYyr-31">
          <mxGeometry y="26" width="210" height="24" as="geometry" />
        </mxCell>
        <mxCell id="_X3g_jrZR5o-a9PcmYyr-33" value="         DCS_CustomerId" style="text;align=left;verticalAlign=top;spacingLeft=4;spacingRight=4;overflow=hidden;rotatable=0;points=[[0,0.5],[1,0.5]];portConstraint=eastwest;labelBackgroundColor=none;fontColor=#143642;rounded=1;" vertex="1" parent="_X3g_jrZR5o-a9PcmYyr-31">
          <mxGeometry y="50" width="210" height="26" as="geometry" />
        </mxCell>
        <mxCell id="_X3g_jrZR5o-a9PcmYyr-34" value="         DCS_CustomerName" style="text;align=left;verticalAlign=top;spacingLeft=4;spacingRight=4;overflow=hidden;rotatable=0;points=[[0,0.5],[1,0.5]];portConstraint=eastwest;labelBackgroundColor=none;fontColor=#143642;rounded=1;" vertex="1" parent="_X3g_jrZR5o-a9PcmYyr-31">
          <mxGeometry y="76" width="210" height="26" as="geometry" />
        </mxCell>
        <mxCell id="_X3g_jrZR5o-a9PcmYyr-35" value="         DCS_CustomerCategory" style="text;align=left;verticalAlign=top;spacingLeft=4;spacingRight=4;overflow=hidden;rotatable=0;points=[[0,0.5],[1,0.5]];portConstraint=eastwest;labelBackgroundColor=none;fontColor=#143642;rounded=1;" vertex="1" parent="_X3g_jrZR5o-a9PcmYyr-31">
          <mxGeometry y="102" width="210" height="26" as="geometry" />
        </mxCell>
        <mxCell id="_X3g_jrZR5o-a9PcmYyr-36" value="         DCS_CustomerType" style="text;align=left;verticalAlign=top;spacingLeft=4;spacingRight=4;overflow=hidden;rotatable=0;points=[[0,0.5],[1,0.5]];portConstraint=eastwest;labelBackgroundColor=none;fontColor=#143642;rounded=1;" vertex="1" parent="_X3g_jrZR5o-a9PcmYyr-31">
          <mxGeometry y="128" width="210" height="26" as="geometry" />
        </mxCell>
        <mxCell id="_X3g_jrZR5o-a9PcmYyr-37" value="         DCS_Prospect" style="text;align=left;verticalAlign=top;spacingLeft=4;spacingRight=4;overflow=hidden;rotatable=0;points=[[0,0.5],[1,0.5]];portConstraint=eastwest;labelBackgroundColor=none;fontColor=#143642;rounded=1;" vertex="1" parent="_X3g_jrZR5o-a9PcmYyr-31">
          <mxGeometry y="154" width="210" height="26" as="geometry" />
        </mxCell>
        <mxCell id="_X3g_jrZR5o-a9PcmYyr-38" value="         DCS_CountryCode" style="text;align=left;verticalAlign=top;spacingLeft=4;spacingRight=4;overflow=hidden;rotatable=0;points=[[0,0.5],[1,0.5]];portConstraint=eastwest;labelBackgroundColor=none;fontColor=#143642;rounded=1;" vertex="1" parent="_X3g_jrZR5o-a9PcmYyr-31">
          <mxGeometry y="180" width="210" height="26" as="geometry" />
        </mxCell>
        <mxCell id="_X3g_jrZR5o-a9PcmYyr-39" value="         DCS_City" style="text;align=left;verticalAlign=top;spacingLeft=4;spacingRight=4;overflow=hidden;rotatable=0;points=[[0,0.5],[1,0.5]];portConstraint=eastwest;labelBackgroundColor=none;fontColor=#143642;rounded=1;" vertex="1" parent="_X3g_jrZR5o-a9PcmYyr-31">
          <mxGeometry y="206" width="210" height="26" as="geometry" />
        </mxCell>
        <mxCell id="_X3g_jrZR5o-a9PcmYyr-40" value="" style="line;html=1;strokeWidth=1;align=left;verticalAlign=middle;spacingTop=-1;spacingLeft=3;spacingRight=3;rotatable=0;labelPosition=right;points=[];portConstraint=eastwest;labelBackgroundColor=none;fillColor=#FAE5C7;strokeColor=#0F8B8D;fontColor=#143642;rounded=1;" vertex="1" parent="_X3g_jrZR5o-a9PcmYyr-31">
          <mxGeometry y="232" width="210" height="28" as="geometry" />
        </mxCell>
        <mxCell id="_X3g_jrZR5o-a9PcmYyr-41" style="edgeStyle=orthogonalEdgeStyle;rounded=0;orthogonalLoop=1;jettySize=auto;html=1;" edge="1" parent="1" source="ngMEPLknOlef9Go4WVba-14" target="_X3g_jrZR5o-a9PcmYyr-32">
          <mxGeometry relative="1" as="geometry" />
        </mxCell>
        <mxCell id="_X3g_jrZR5o-a9PcmYyr-42" style="edgeStyle=orthogonalEdgeStyle;rounded=0;orthogonalLoop=1;jettySize=auto;html=1;" edge="1" parent="1" source="ngMEPLknOlef9Go4WVba-15" target="_X3g_jrZR5o-a9PcmYyr-32">
          <mxGeometry relative="1" as="geometry">
            <Array as="points">
              <mxPoint x="640" y="727" />
              <mxPoint x="640" y="308" />
            </Array>
          </mxGeometry>
        </mxCell>
        <mxCell id="_X3g_jrZR5o-a9PcmYyr-43" style="edgeStyle=orthogonalEdgeStyle;rounded=0;orthogonalLoop=1;jettySize=auto;html=1;" edge="1" parent="1" source="ngMEPLknOlef9Go4WVba-16" target="_X3g_jrZR5o-a9PcmYyr-32">
          <mxGeometry relative="1" as="geometry">
            <Array as="points">
              <mxPoint x="660" y="753" />
              <mxPoint x="660" y="308" />
            </Array>
          </mxGeometry>
        </mxCell>
        <mxCell id="_X3g_jrZR5o-a9PcmYyr-44" value="Dim.DFC_DimFacility" style="swimlane;fontStyle=0;align=center;verticalAlign=top;childLayout=stackLayout;horizontal=1;startSize=26;horizontalStack=0;resizeParent=1;resizeLast=0;collapsible=1;marginBottom=0;rounded=1;shadow=0;strokeWidth=1;fillColor=#FAE5C7;strokeColor=#0F8B8D;labelBackgroundColor=none;fontColor=#143642;" vertex="1" parent="1">
          <mxGeometry x="760" y="585" width="190" height="188" as="geometry">
            <mxRectangle x="550" y="140" width="160" height="26" as="alternateBounds" />
          </mxGeometry>
        </mxCell>
        <mxCell id="_X3g_jrZR5o-a9PcmYyr-45" value="PK ** DFC_FacilityKey" style="text;align=left;verticalAlign=top;spacingLeft=4;spacingRight=4;overflow=hidden;rotatable=0;points=[[0,0.5],[1,0.5]];portConstraint=eastwest;labelBackgroundColor=none;fontColor=#143642;rounded=1;" vertex="1" parent="_X3g_jrZR5o-a9PcmYyr-44">
          <mxGeometry y="26" width="190" height="24" as="geometry" />
        </mxCell>
        <mxCell id="_X3g_jrZR5o-a9PcmYyr-46" value="         DFC_FacilityId" style="text;align=left;verticalAlign=top;spacingLeft=4;spacingRight=4;overflow=hidden;rotatable=0;points=[[0,0.5],[1,0.5]];portConstraint=eastwest;labelBackgroundColor=none;fontColor=#143642;rounded=1;" vertex="1" parent="_X3g_jrZR5o-a9PcmYyr-44">
          <mxGeometry y="50" width="190" height="26" as="geometry" />
        </mxCell>
        <mxCell id="_X3g_jrZR5o-a9PcmYyr-47" value="         DFC_FacilityName" style="text;align=left;verticalAlign=top;spacingLeft=4;spacingRight=4;overflow=hidden;rotatable=0;points=[[0,0.5],[1,0.5]];portConstraint=eastwest;labelBackgroundColor=none;fontColor=#143642;rounded=1;" vertex="1" parent="_X3g_jrZR5o-a9PcmYyr-44">
          <mxGeometry y="76" width="190" height="26" as="geometry" />
        </mxCell>
        <mxCell id="_X3g_jrZR5o-a9PcmYyr-48" value="         DFC_ShortName" style="text;align=left;verticalAlign=top;spacingLeft=4;spacingRight=4;overflow=hidden;rotatable=0;points=[[0,0.5],[1,0.5]];portConstraint=eastwest;labelBackgroundColor=none;rounded=1;" vertex="1" parent="_X3g_jrZR5o-a9PcmYyr-44">
          <mxGeometry y="102" width="190" height="26" as="geometry" />
        </mxCell>
        <mxCell id="_X3g_jrZR5o-a9PcmYyr-86" value="         DFC_CountryCode" style="text;align=left;verticalAlign=top;spacingLeft=4;spacingRight=4;overflow=hidden;rotatable=0;points=[[0,0.5],[1,0.5]];portConstraint=eastwest;labelBackgroundColor=none;rounded=1;" vertex="1" parent="_X3g_jrZR5o-a9PcmYyr-44">
          <mxGeometry y="128" width="190" height="26" as="geometry" />
        </mxCell>
        <mxCell id="_X3g_jrZR5o-a9PcmYyr-49" value="         DFC_CountryCode" style="text;align=left;verticalAlign=top;spacingLeft=4;spacingRight=4;overflow=hidden;rotatable=0;points=[[0,0.5],[1,0.5]];portConstraint=eastwest;labelBackgroundColor=none;rounded=1;" vertex="1" parent="_X3g_jrZR5o-a9PcmYyr-44">
          <mxGeometry y="154" width="190" height="26" as="geometry" />
        </mxCell>
        <mxCell id="_X3g_jrZR5o-a9PcmYyr-50" value="" style="line;html=1;strokeWidth=1;align=left;verticalAlign=middle;spacingTop=-1;spacingLeft=3;spacingRight=3;rotatable=0;labelPosition=right;points=[];portConstraint=eastwest;labelBackgroundColor=none;fillColor=#FAE5C7;strokeColor=#0F8B8D;fontColor=#143642;rounded=1;" vertex="1" parent="_X3g_jrZR5o-a9PcmYyr-44">
          <mxGeometry y="180" width="190" height="8" as="geometry" />
        </mxCell>
        <mxCell id="_X3g_jrZR5o-a9PcmYyr-54" style="edgeStyle=orthogonalEdgeStyle;rounded=0;orthogonalLoop=1;jettySize=auto;html=1;" edge="1" parent="1" source="ngMEPLknOlef9Go4WVba-17" target="_X3g_jrZR5o-a9PcmYyr-45">
          <mxGeometry relative="1" as="geometry">
            <Array as="points">
              <mxPoint x="700" y="779" />
              <mxPoint x="700" y="623" />
            </Array>
          </mxGeometry>
        </mxCell>
        <mxCell id="_X3g_jrZR5o-a9PcmYyr-55" style="edgeStyle=orthogonalEdgeStyle;rounded=0;orthogonalLoop=1;jettySize=auto;html=1;" edge="1" parent="1" source="ngMEPLknOlef9Go4WVba-18" target="_X3g_jrZR5o-a9PcmYyr-45">
          <mxGeometry relative="1" as="geometry">
            <Array as="points">
              <mxPoint x="720" y="805" />
              <mxPoint x="720" y="623" />
            </Array>
          </mxGeometry>
        </mxCell>
        <mxCell id="_X3g_jrZR5o-a9PcmYyr-56" style="edgeStyle=orthogonalEdgeStyle;rounded=0;orthogonalLoop=1;jettySize=auto;html=1;entryX=0;entryY=0.5;entryDx=0;entryDy=0;" edge="1" parent="1" source="ngMEPLknOlef9Go4WVba-19" target="_X3g_jrZR5o-a9PcmYyr-45">
          <mxGeometry relative="1" as="geometry">
            <Array as="points">
              <mxPoint x="740" y="831" />
              <mxPoint x="740" y="623" />
            </Array>
          </mxGeometry>
        </mxCell>
        <mxCell id="_X3g_jrZR5o-a9PcmYyr-57" value="Dim.DCO_DimCountry" style="swimlane;fontStyle=0;align=center;verticalAlign=top;childLayout=stackLayout;horizontal=1;startSize=26;horizontalStack=0;resizeParent=1;resizeLast=0;collapsible=1;marginBottom=0;rounded=1;shadow=0;strokeWidth=1;fillColor=#FAE5C7;strokeColor=#0F8B8D;labelBackgroundColor=none;fontColor=#143642;" vertex="1" parent="1">
          <mxGeometry x="20" y="1100" width="230" height="130" as="geometry">
            <mxRectangle x="550" y="140" width="160" height="26" as="alternateBounds" />
          </mxGeometry>
        </mxCell>
        <mxCell id="_X3g_jrZR5o-a9PcmYyr-58" value="PK** DCO_CountryKey&#xa; " style="text;align=left;verticalAlign=top;spacingLeft=4;spacingRight=4;overflow=hidden;rotatable=0;points=[[0,0.5],[1,0.5]];portConstraint=eastwest;labelBackgroundColor=none;fontColor=#143642;rounded=1;" vertex="1" parent="_X3g_jrZR5o-a9PcmYyr-57">
          <mxGeometry y="26" width="230" height="24" as="geometry" />
        </mxCell>
        <mxCell id="_X3g_jrZR5o-a9PcmYyr-59" value="         DCO_CountryId" style="text;align=left;verticalAlign=top;spacingLeft=4;spacingRight=4;overflow=hidden;rotatable=0;points=[[0,0.5],[1,0.5]];portConstraint=eastwest;labelBackgroundColor=none;fontColor=#143642;rounded=1;" vertex="1" parent="_X3g_jrZR5o-a9PcmYyr-57">
          <mxGeometry y="50" width="230" height="26" as="geometry" />
        </mxCell>
        <mxCell id="_X3g_jrZR5o-a9PcmYyr-60" value="         DCO_CountryName" style="text;align=left;verticalAlign=top;spacingLeft=4;spacingRight=4;overflow=hidden;rotatable=0;points=[[0,0.5],[1,0.5]];portConstraint=eastwest;labelBackgroundColor=none;fontColor=#143642;rounded=1;" vertex="1" parent="_X3g_jrZR5o-a9PcmYyr-57">
          <mxGeometry y="76" width="230" height="26" as="geometry" />
        </mxCell>
        <mxCell id="_X3g_jrZR5o-a9PcmYyr-61" value="" style="line;html=1;strokeWidth=1;align=left;verticalAlign=middle;spacingTop=-1;spacingLeft=3;spacingRight=3;rotatable=0;labelPosition=right;points=[];portConstraint=eastwest;labelBackgroundColor=none;fillColor=#FAE5C7;strokeColor=#0F8B8D;fontColor=#143642;rounded=1;" vertex="1" parent="_X3g_jrZR5o-a9PcmYyr-57">
          <mxGeometry y="102" width="230" height="8" as="geometry" />
        </mxCell>
        <mxCell id="_X3g_jrZR5o-a9PcmYyr-63" style="edgeStyle=orthogonalEdgeStyle;rounded=0;orthogonalLoop=1;jettySize=auto;html=1;" edge="1" parent="1" source="ngMEPLknOlef9Go4WVba-21" target="_X3g_jrZR5o-a9PcmYyr-58">
          <mxGeometry relative="1" as="geometry">
            <Array as="points">
              <mxPoint x="310" y="883" />
              <mxPoint x="310" y="1138" />
            </Array>
          </mxGeometry>
        </mxCell>
        <mxCell id="_X3g_jrZR5o-a9PcmYyr-64" value="Dim.DCP_DimCompany" style="swimlane;fontStyle=0;align=center;verticalAlign=top;childLayout=stackLayout;horizontal=1;startSize=26;horizontalStack=0;resizeParent=1;resizeLast=0;collapsible=1;marginBottom=0;rounded=1;shadow=0;strokeWidth=1;fillColor=#FAE5C7;strokeColor=#0F8B8D;labelBackgroundColor=none;fontColor=#143642;" vertex="1" parent="1">
          <mxGeometry x="20" y="840" width="191" height="230" as="geometry">
            <mxRectangle x="550" y="140" width="160" height="26" as="alternateBounds" />
          </mxGeometry>
        </mxCell>
        <mxCell id="_X3g_jrZR5o-a9PcmYyr-65" value="PK ** DCP_CompanyKey&#xa;" style="text;align=left;verticalAlign=top;spacingLeft=4;spacingRight=4;overflow=hidden;rotatable=0;points=[[0,0.5],[1,0.5]];portConstraint=eastwest;labelBackgroundColor=none;fontColor=#143642;rounded=1;" vertex="1" parent="_X3g_jrZR5o-a9PcmYyr-64">
          <mxGeometry y="26" width="191" height="24" as="geometry" />
        </mxCell>
        <mxCell id="_X3g_jrZR5o-a9PcmYyr-66" value="        DCP_CompanyId" style="text;align=left;verticalAlign=top;spacingLeft=4;spacingRight=4;overflow=hidden;rotatable=0;points=[[0,0.5],[1,0.5]];portConstraint=eastwest;labelBackgroundColor=none;fontColor=#143642;rounded=1;" vertex="1" parent="_X3g_jrZR5o-a9PcmYyr-64">
          <mxGeometry y="50" width="191" height="26" as="geometry" />
        </mxCell>
        <mxCell id="_X3g_jrZR5o-a9PcmYyr-67" value="        DCP_CompanyName" style="text;align=left;verticalAlign=top;spacingLeft=4;spacingRight=4;overflow=hidden;rotatable=0;points=[[0,0.5],[1,0.5]];portConstraint=eastwest;labelBackgroundColor=none;fontColor=#143642;rounded=1;" vertex="1" parent="_X3g_jrZR5o-a9PcmYyr-64">
          <mxGeometry y="76" width="191" height="26" as="geometry" />
        </mxCell>
        <mxCell id="_X3g_jrZR5o-a9PcmYyr-68" value="        DCP_ShortName" style="text;align=left;verticalAlign=top;spacingLeft=4;spacingRight=4;overflow=hidden;rotatable=0;points=[[0,0.5],[1,0.5]];portConstraint=eastwest;labelBackgroundColor=none;fontColor=#143642;rounded=1;" vertex="1" parent="_X3g_jrZR5o-a9PcmYyr-64">
          <mxGeometry y="102" width="191" height="26" as="geometry" />
        </mxCell>
        <mxCell id="_X3g_jrZR5o-a9PcmYyr-69" value="        DCP_MainFacility" style="text;align=left;verticalAlign=top;spacingLeft=4;spacingRight=4;overflow=hidden;rotatable=0;points=[[0,0.5],[1,0.5]];portConstraint=eastwest;rounded=1;shadow=0;html=0;labelBackgroundColor=none;" vertex="1" parent="_X3g_jrZR5o-a9PcmYyr-64">
          <mxGeometry y="128" width="191" height="26" as="geometry" />
        </mxCell>
        <mxCell id="_X3g_jrZR5o-a9PcmYyr-70" value="        DCP_Capital" style="text;align=left;verticalAlign=top;spacingLeft=4;spacingRight=4;overflow=hidden;rotatable=0;points=[[0,0.5],[1,0.5]];portConstraint=eastwest;rounded=1;shadow=0;html=0;labelBackgroundColor=none;" vertex="1" parent="_X3g_jrZR5o-a9PcmYyr-64">
          <mxGeometry y="154" width="191" height="26" as="geometry" />
        </mxCell>
        <mxCell id="_X3g_jrZR5o-a9PcmYyr-71" value="        DCP_ContryCode" style="text;align=left;verticalAlign=top;spacingLeft=4;spacingRight=4;overflow=hidden;rotatable=0;points=[[0,0.5],[1,0.5]];portConstraint=eastwest;labelBackgroundColor=none;fontColor=#143642;rounded=1;" vertex="1" parent="_X3g_jrZR5o-a9PcmYyr-64">
          <mxGeometry y="180" width="191" height="26" as="geometry" />
        </mxCell>
        <mxCell id="_X3g_jrZR5o-a9PcmYyr-72" value="" style="line;html=1;strokeWidth=1;align=left;verticalAlign=middle;spacingTop=-1;spacingLeft=3;spacingRight=3;rotatable=0;labelPosition=right;points=[];portConstraint=eastwest;labelBackgroundColor=none;fillColor=#FAE5C7;strokeColor=#0F8B8D;fontColor=#143642;rounded=1;" vertex="1" parent="_X3g_jrZR5o-a9PcmYyr-64">
          <mxGeometry y="206" width="191" height="8" as="geometry" />
        </mxCell>
        <mxCell id="_X3g_jrZR5o-a9PcmYyr-73" style="edgeStyle=orthogonalEdgeStyle;rounded=0;orthogonalLoop=1;jettySize=auto;html=1;" edge="1" parent="1" source="ngMEPLknOlef9Go4WVba-20" target="_X3g_jrZR5o-a9PcmYyr-65">
          <mxGeometry relative="1" as="geometry">
            <Array as="points">
              <mxPoint x="240" y="857" />
              <mxPoint x="240" y="878" />
            </Array>
          </mxGeometry>
        </mxCell>
        <mxCell id="_X3g_jrZR5o-a9PcmYyr-74" value="Dim.DIT_DimInvoiceType" style="swimlane;fontStyle=0;align=center;verticalAlign=top;childLayout=stackLayout;horizontal=1;startSize=26;horizontalStack=0;resizeParent=1;resizeLast=0;collapsible=1;marginBottom=0;rounded=1;shadow=0;strokeWidth=1;fillColor=#FAE5C7;strokeColor=#0F8B8D;labelBackgroundColor=none;fontColor=#143642;" vertex="1" parent="1">
          <mxGeometry x="760" y="850" width="230" height="130" as="geometry">
            <mxRectangle x="550" y="140" width="160" height="26" as="alternateBounds" />
          </mxGeometry>
        </mxCell>
        <mxCell id="_X3g_jrZR5o-a9PcmYyr-75" value="PK** DIT_InvoiceTypeKey&#xa; " style="text;align=left;verticalAlign=top;spacingLeft=4;spacingRight=4;overflow=hidden;rotatable=0;points=[[0,0.5],[1,0.5]];portConstraint=eastwest;labelBackgroundColor=none;fontColor=#143642;rounded=1;" vertex="1" parent="_X3g_jrZR5o-a9PcmYyr-74">
          <mxGeometry y="26" width="230" height="24" as="geometry" />
        </mxCell>
        <mxCell id="_X3g_jrZR5o-a9PcmYyr-76" value="         DIT_InvoiceTypeId" style="text;align=left;verticalAlign=top;spacingLeft=4;spacingRight=4;overflow=hidden;rotatable=0;points=[[0,0.5],[1,0.5]];portConstraint=eastwest;labelBackgroundColor=none;fontColor=#143642;rounded=1;" vertex="1" parent="_X3g_jrZR5o-a9PcmYyr-74">
          <mxGeometry y="50" width="230" height="26" as="geometry" />
        </mxCell>
        <mxCell id="_X3g_jrZR5o-a9PcmYyr-77" value="         DIT_InvoiceTypeDescription" style="text;align=left;verticalAlign=top;spacingLeft=4;spacingRight=4;overflow=hidden;rotatable=0;points=[[0,0.5],[1,0.5]];portConstraint=eastwest;labelBackgroundColor=none;fontColor=#143642;rounded=1;" vertex="1" parent="_X3g_jrZR5o-a9PcmYyr-74">
          <mxGeometry y="76" width="230" height="26" as="geometry" />
        </mxCell>
        <mxCell id="_X3g_jrZR5o-a9PcmYyr-78" value="" style="line;html=1;strokeWidth=1;align=left;verticalAlign=middle;spacingTop=-1;spacingLeft=3;spacingRight=3;rotatable=0;labelPosition=right;points=[];portConstraint=eastwest;labelBackgroundColor=none;fillColor=#FAE5C7;strokeColor=#0F8B8D;fontColor=#143642;rounded=1;" vertex="1" parent="_X3g_jrZR5o-a9PcmYyr-74">
          <mxGeometry y="102" width="230" height="8" as="geometry" />
        </mxCell>
        <mxCell id="_X3g_jrZR5o-a9PcmYyr-79" style="edgeStyle=orthogonalEdgeStyle;rounded=0;orthogonalLoop=1;jettySize=auto;html=1;" edge="1" parent="1" source="ngMEPLknOlef9Go4WVba-22" target="_X3g_jrZR5o-a9PcmYyr-75">
          <mxGeometry relative="1" as="geometry" />
        </mxCell>
        <mxCell id="_X3g_jrZR5o-a9PcmYyr-80" value="Dim.DIS_DimInvoiceStatus" style="swimlane;fontStyle=0;align=center;verticalAlign=top;childLayout=stackLayout;horizontal=1;startSize=26;horizontalStack=0;resizeParent=1;resizeLast=0;collapsible=1;marginBottom=0;rounded=1;shadow=0;strokeWidth=1;fillColor=#FAE5C7;strokeColor=#0F8B8D;labelBackgroundColor=none;fontColor=#143642;" vertex="1" parent="1">
          <mxGeometry x="712" y="1020" width="230" height="130" as="geometry">
            <mxRectangle x="550" y="140" width="160" height="26" as="alternateBounds" />
          </mxGeometry>
        </mxCell>
        <mxCell id="_X3g_jrZR5o-a9PcmYyr-81" value="PK** DIS_InvoiceStatusKey&#xa; " style="text;align=left;verticalAlign=top;spacingLeft=4;spacingRight=4;overflow=hidden;rotatable=0;points=[[0,0.5],[1,0.5]];portConstraint=eastwest;labelBackgroundColor=none;fontColor=#143642;rounded=1;" vertex="1" parent="_X3g_jrZR5o-a9PcmYyr-80">
          <mxGeometry y="26" width="230" height="24" as="geometry" />
        </mxCell>
        <mxCell id="_X3g_jrZR5o-a9PcmYyr-82" value="         DIS_InvoiceStatusId" style="text;align=left;verticalAlign=top;spacingLeft=4;spacingRight=4;overflow=hidden;rotatable=0;points=[[0,0.5],[1,0.5]];portConstraint=eastwest;labelBackgroundColor=none;fontColor=#143642;rounded=1;" vertex="1" parent="_X3g_jrZR5o-a9PcmYyr-80">
          <mxGeometry y="50" width="230" height="26" as="geometry" />
        </mxCell>
        <mxCell id="_X3g_jrZR5o-a9PcmYyr-83" value="         DIS_InvoiceStatusDescription" style="text;align=left;verticalAlign=top;spacingLeft=4;spacingRight=4;overflow=hidden;rotatable=0;points=[[0,0.5],[1,0.5]];portConstraint=eastwest;labelBackgroundColor=none;fontColor=#143642;rounded=1;" vertex="1" parent="_X3g_jrZR5o-a9PcmYyr-80">
          <mxGeometry y="76" width="230" height="26" as="geometry" />
        </mxCell>
        <mxCell id="_X3g_jrZR5o-a9PcmYyr-84" value="" style="line;html=1;strokeWidth=1;align=left;verticalAlign=middle;spacingTop=-1;spacingLeft=3;spacingRight=3;rotatable=0;labelPosition=right;points=[];portConstraint=eastwest;labelBackgroundColor=none;fillColor=#FAE5C7;strokeColor=#0F8B8D;fontColor=#143642;rounded=1;" vertex="1" parent="_X3g_jrZR5o-a9PcmYyr-80">
          <mxGeometry y="102" width="230" height="8" as="geometry" />
        </mxCell>
        <mxCell id="_X3g_jrZR5o-a9PcmYyr-85" style="edgeStyle=orthogonalEdgeStyle;rounded=0;orthogonalLoop=1;jettySize=auto;html=1;" edge="1" parent="1" source="ngMEPLknOlef9Go4WVba-23" target="_X3g_jrZR5o-a9PcmYyr-81">
          <mxGeometry relative="1" as="geometry" />
        </mxCell>
      </root>
    </mxGraphModel>
  </diagram>
</mxfile>
